<?xml version="1.0"?>
<svg xmlns="http://www.w3.org/2000/svg" id="Layer_3" enable-background="new 0 0 64 64" height="512px" viewBox="0 0 64 64" width="512px"><g><path d="m25.787 12.123 1.573 1.234c.387-.493.806-.97 1.246-1.415l-1.425-1.404c-.492.499-.961 1.032-1.394 1.585z" data-original="#000000" class="active-path" data-old_color="#000000" fill="#D8D1D1"/><path d="m28.748 9.12 1.255 1.557c.487-.392 1.002-.762 1.533-1.099l-1.073-1.688c-.593.377-1.17.791-1.715 1.23z" data-original="#000000" class="active-path" data-old_color="#000000" fill="#D8D1D1"/><path d="m23.579 15.72 1.812.846c.265-.567.565-1.125.893-1.659l-1.704-1.047c-.368.598-.705 1.224-1.001 1.86z" data-original="#000000" class="active-path" data-old_color="#000000" fill="#D8D1D1"/><path d="m40.417 1c-9.648 0-18.233 6.132-21.362 15.259l-6.542 19.082c-.429-.215-.899-.341-1.392-.341-1.684 0-3.051 1.342-3.11 3.011-1.669.059-3.011 1.427-3.011 3.11 0 .142.023.282.042.423l-.436.436c-2.325 2.325-3.606 5.416-3.606 8.707 0 6.79 5.524 12.313 12.313 12.313 3.289 0 6.381-1.28 8.707-3.606l.435-.435c.14.019.28.041.424.041 1.684 0 3.051-1.342 3.11-3.011 1.669-.059 3.011-1.427 3.011-3.11 0-.486-.128-.959-.343-1.389l19.084-6.543c9.127-3.131 15.259-11.716 15.259-21.364 0-12.452-10.131-22.583-22.583-22.583zm-37.417 49.687c0-2.746 1.066-5.327 3.001-7.271l14.584 14.584c-1.946 1.933-4.527 3-7.272 3-5.687 0-10.313-4.627-10.313-10.313zm19.879 6.313c-.3 0-.581-.116-.793-.328l-14.758-14.758c-.208-.209-.328-.498-.328-.793 0-.618.503-1.121 1.121-1.121.3 0 .581.116.793.328l14.758 14.758c.208.209.328.498.328.793 0 .618-.503 1.121-1.121 1.121zm3-3c-.3 0-.581-.116-.793-.328l-14.758-14.758c-.208-.209-.328-.498-.328-.793 0-.618.503-1.121 1.121-1.121.3 0 .581.116.793.328l3.794 3.794 7.17 7.17 3.794 3.794c.208.209.328.498.328.793 0 .618-.503 1.121-1.121 1.121zm12.072-18.376-14.829 10.084-1.708-1.708 6.675-6.675-1.414-1.414-6.675 6.675-1.708-1.708 10.084-14.829c1.141 4.719 4.855 8.434 9.575 9.575zm3.049-1.624c-6.065 0-11-4.935-11-11s4.935-11 11-11 11 4.935 11 11-4.935 11-11 11zm6.092 9.054-19.827 6.798-2.704-2.704 16.397-11.149c.014-.001.028.001.042.001 7.168 0 13-5.832 13-13s-5.832-13-13-13-13 5.832-13 13c0 .014.002.027.002.041l-11.149 16.398-2.705-2.705 6.798-19.827c2.852-8.318 10.677-13.907 19.471-13.907 11.349 0 20.583 9.233 20.583 20.583 0 8.794-5.589 16.619-13.908 19.471z" data-original="#000000" class="active-path" data-old_color="#000000" fill="#D8D1D1"/><path d="m28.37 33.675h1.91v2h-1.91z" transform="matrix(.707 -.707 .707 .707 -15.93 30.892)" data-original="#000000" class="active-path" data-old_color="#000000" fill="#D8D1D1"/><path d="m58.97 21.941c-.042-.708-.125-1.421-.249-2.116l-1.969.35c.11.619.184 1.253.221 1.884z" data-original="#000000" class="active-path" data-old_color="#000000" fill="#D8D1D1"/><path d="m57.001 23.943-.055.977c-.53 6.576-4.907 12.209-11.151 14.35l-5.12 1.756.648 1.893 5.12-1.756c6.998-2.4 11.902-8.712 12.498-16.105l.057-1z" data-original="#000000" class="active-path" data-old_color="#000000" fill="#D8D1D1"/><path d="m41 18c1.103 0 2 .897 2 2h2c0-1.859-1.28-3.411-3-3.858v-2.142h-2v2h-3v4c0 2.206 1.794 4 4 4 1.103 0 2 .897 2 2v2h-2c-1.103 0-2-.897-2-2h-2c0 1.859 1.28 3.411 3 3.858v2.142h2v-2h3v-4c0-2.206-1.794-4-4-4-1.103 0-2-.897-2-2v-2z" data-original="#000000" class="active-path" data-old_color="#000000" fill="#D8D1D1"/><path d="m46 22h2v2h-2z" data-original="#000000" class="active-path" data-old_color="#000000" fill="#D8D1D1"/><path d="m34 22h2v2h-2z" data-original="#000000" class="active-path" data-old_color="#000000" fill="#D8D1D1"/></g> </svg>
