<?xml version="1.0"?>
<svg xmlns="http://www.w3.org/2000/svg" id="Layer_3" enable-background="new 0 0 64 64" height="512px" viewBox="0 0 64 64" width="512px" class=""><g><path d="m35 45h-2v-8h-8v8h-2v-12h-8v14h28v-20h-8zm-14 0h-4v-10h4zm6-6h4v6h-4zm10-10h4v16h-4z" data-original="#000000" class="active-path" data-old_color="#000000" fill="#D8D1D1"/><path d="m7 27h6v2h-6z" data-original="#000000" class="active-path" data-old_color="#000000" fill="#D8D1D1"/><path d="m7 31h6v2h-6z" data-original="#000000" class="active-path" data-old_color="#000000" fill="#D8D1D1"/><path d="m7 35h6v2h-6z" data-original="#000000" class="active-path" data-old_color="#000000" fill="#D8D1D1"/><path d="m63 21.775v-7.551l-2.694-.693c-.269-.863-.613-1.697-1.029-2.491l1.415-2.392-5.341-5.338-2.391 1.414c-.794-.416-1.628-.761-2.492-1.03l-.693-2.694h-7.551l-.692 2.694c-.864.269-1.698.614-2.492 1.03l-2.391-1.414-5.341 5.339 1.415 2.392c-.416.793-.761 1.627-1.029 2.491l-2.694.693v4.775h-26c-1.103 0-2 .897-2 2v2c0 1.103.897 2 2 2v26h11.382l-4.105 8.211c-.181.361-.277.767-.277 1.171 0 1.443 1.175 2.618 2.618 2.618h2.146c1.144 0 2.172-.636 2.684-1.658l1.17-2.342h12.764l1.171 2.342c.511 1.022 1.54 1.658 2.683 1.658h2.146c1.443 0 2.618-1.175 2.618-2.618 0-.404-.096-.81-.276-1.171l-4.106-8.211h11.382v-16h2.775l.692-2.694c.864-.269 1.698-.614 2.492-1.03l2.391 1.414 5.341-5.339-1.415-2.392c.416-.793.761-1.627 1.029-2.491zm-60-.775h44l.001 2h-44.001zm34-3c0-4.962 4.037-9 9-9s9 4.038 9 9c0 4.624-3.507 8.442-8 8.941v-1.941c.414 0 .798-.126 1.118-.342 2.882-.918 4.882-3.614 4.882-6.658 0-3.86-3.141-7-7-7s-7 3.14-7 7c0 .337.037.67.085 1h-2.026c-.037-.332-.059-.666-.059-1zm4.111 1c-.067-.328-.111-.66-.111-1 0-2.757 2.243-5 5-5s5 2.243 5 5c0 1.598-.777 3.057-2 3.983v-.983c0-1.103-.897-2-2-2zm-25.453 41.447c-.17.341-.512.553-.894.553h-2.146c-.341 0-.618-.277-.618-.618 0-.096.022-.191.065-.276l4.553-9.106h3.764zm3.96-3.447 3-6h4.764l3 6zm18.317 3.105c.043.085.065.181.065.277 0 .341-.277.618-.618.618h-2.146c-.382 0-.725-.212-.895-.553l-4.723-9.447h3.764zm-32.935-11.105v-24h40v24zm53.691-28.182-.152.563c-.294 1.091-.725 2.133-1.279 3.097l-.292.505 1.212 2.05-3.146 3.146-2.051-1.212-.506.292c-.963.556-2.005.986-3.096 1.28l-.563.152-.593 2.309h-1.225v-4.051c5.598-.507 10-5.221 10-10.949 0-6.065-4.935-11-11-11s-11 4.935-11 11c0 .334.02.668.05 1h-4.05v-3.225l2.309-.594.152-.563c.294-1.091.725-2.133 1.279-3.097l.292-.505-1.212-2.05 3.146-3.146 2.051 1.212.506-.292c.963-.556 2.005-.986 3.096-1.28l.563-.152.593-2.308h4.449l.594 2.309.563.152c1.091.293 2.133.724 3.096 1.28l.506.292 2.051-1.212 3.146 3.146-1.212 2.05.292.505c.555.964.985 2.005 1.279 3.097l.152.563 2.309.593v4.449z" data-original="#000000" class="active-path" data-old_color="#000000" fill="#D8D1D1"/></g> </svg>
